<svg xmlns="http://www.w3.org/2000/svg" width="16" height="16"
     viewBox="0 0 16 16" fill="none">
    <path fill-rule="evenodd" clip-rule="evenodd"
          d="M7.99984 1.98218C7.99984 1.1358 6.97651 0.711944 6.37805 1.31046L0.573594 7.11547C0.0854944 7.60362 0.0854944 8.39501 0.573595 8.88316L6.37805 14.6881C6.97651 15.2867 7.99984 14.8628 7.99984 14.0164V11.2578C9.40932 11.2916 10.2791 11.4338 10.9961 11.7625C11.8267 12.1432 12.539 12.8135 13.6393 14.1296C13.8354 14.3643 14.1543 14.4563 14.4453 14.3623C14.7363 14.2683 14.941 14.007 14.9628 13.702C15.1884 10.5435 14.3775 8.26663 12.8681 6.78602C11.5545 5.49747 9.80183 4.90088 7.99984 4.77524V1.98218ZM6.49984 3.31009V5.49955C6.49984 5.91376 6.83562 6.24955 7.24984 6.24955H7.25284C9.05736 6.24955 10.6896 6.75024 11.8177 7.85683C12.6607 8.68377 13.2891 9.91521 13.4562 11.7011C12.8707 11.1359 12.29 10.7054 11.6211 10.3989C10.4665 9.86972 9.1362 9.74955 7.25284 9.74955H7.24984C6.83562 9.74955 6.49984 10.0853 6.49984 10.4996V12.6885L1.81106 7.99932L6.49984 3.31009Z"
          fill="#222222"/>
</svg>