<svg xmlns="http://www.w3.org/2000/svg" width="16" height="16"
     viewBox="0 0 16 16" fill="none">
    <path fill-rule="evenodd" clip-rule="evenodd"
          d="M8.00025 1.98218C8.00025 1.1358 9.02358 0.711944 9.62204 1.31046L15.4265 7.11547C15.9146 7.60362 15.9146 8.39501 15.4265 8.88316L9.62203 14.6881C9.02358 15.2867 8.00025 14.8628 8.00025 14.0164V11.2578C6.59077 11.2916 5.72103 11.4338 5.00397 11.7625C4.17339 12.1432 3.46107 12.8135 2.36078 14.1296C2.16466 14.3643 1.84575 14.4563 1.55478 14.3623C1.26381 14.2683 1.05904 14.007 1.03726 13.702C0.811699 10.5435 1.62264 8.26663 3.13199 6.78602C4.44556 5.49747 6.19826 4.90088 8.00025 4.77524V1.98218ZM9.50025 3.31009V5.49955C9.50025 5.91376 9.16446 6.24955 8.75025 6.24955H8.74724C6.94273 6.24955 5.31047 6.75024 4.18241 7.85683C3.33941 8.68377 2.711 9.91521 2.54384 11.7011C3.12936 11.1359 3.71013 10.7054 4.37901 10.3989C5.53359 9.86972 6.86389 9.74955 8.74724 9.74955H8.75025C9.16446 9.74955 9.50025 10.0853 9.50025 10.4996V12.6885L14.189 7.99932L9.50025 3.31009Z"
          fill="#222222"/>
</svg>