<svg xmlns="http://www.w3.org/2000/svg" width="16" height="16" viewBox="0 0 16 16" fill="none">
<path fill-rule="evenodd" clip-rule="evenodd" d="M2.03033 0.96967C1.73744 0.676777 1.26256 0.676777 0.96967 0.96967C0.676777 1.26256 0.676777 1.73744 0.96967 2.03033L2.89441 3.95507C1.62218 4.91289 0.62683 6.2196 0.049516 7.73263C-0.016185 7.90483 -0.0161849 8.09518 0.0495162 8.26737C1.272 11.4713 4.36891 13.75 8 13.75C9.36443 13.75 10.6534 13.4282 11.7959 12.8566L13.9697 15.0303C14.2626 15.3232 14.7374 15.3232 15.0303 15.0303C15.3232 14.7374 15.3232 14.2626 15.0303 13.9697L2.03033 0.96967ZM10.664 11.7246L9.70607 10.7667C9.21018 11.0732 8.62574 11.25 8 11.25C6.20507 11.25 4.75 9.79493 4.75 8C4.75 7.37426 4.92684 6.78982 5.23327 6.29393L3.96783 5.02849C2.91493 5.7721 2.07518 6.79928 1.55935 8C2.63408 10.5017 5.11486 12.25 8 12.25C8.94282 12.25 9.84246 12.0633 10.664 11.7246ZM6.35126 7.41192C6.2857 7.59572 6.25 7.79369 6.25 8C6.25 8.9665 7.0335 9.75 8 9.75C8.20631 9.75 8.40428 9.7143 8.58808 9.64874L6.35126 7.41192Z" fill="#222222"/>
<path d="M7.54883 4.78106L11.2189 8.45117C11.2394 8.30371 11.25 8.15309 11.25 8C11.25 6.20507 9.79493 4.75 8 4.75C7.84691 4.75 7.69629 4.76059 7.54883 4.78106Z" fill="#222222"/>
<path d="M14.4406 8C14.0869 8.82352 13.5807 9.5654 12.9579 10.1902L14.0184 11.2506C14.8561 10.4106 15.5197 9.39643 15.9505 8.26737C16.0162 8.09518 16.0162 7.90482 15.9505 7.73263C14.728 4.52874 11.6311 2.25 8 2.25C7.09952 2.25 6.23189 2.39014 5.41755 2.64978L6.64834 3.88058C7.08577 3.79489 7.53769 3.75 8 3.75C10.8851 3.75 13.3659 5.49833 14.4406 8Z" fill="#222222"/>
</svg>