<svg xmlns="http://www.w3.org/2000/svg" width="16" height="16" viewBox="0 0 16 16" fill="none">
<path fill-rule="evenodd" clip-rule="evenodd" d="M13.3573 1.51452C12.6739 0.831099 11.5659 0.831099 10.8824 1.51451L2.51452 9.88239C2.18633 10.2106 2.00195 10.6557 2.00195 11.1198L2.00195 13.248C2.00195 13.4469 2.08097 13.6376 2.22162 13.7783C2.36228 13.919 2.55304 13.998 2.75195 13.998H4.86103C5.32452 13.998 5.76908 13.8141 6.09717 13.4867L14.4834 5.11808C15.168 4.43487 15.1686 3.32583 14.4847 2.6419L13.3573 1.51452ZM11.9431 2.57518C12.0407 2.47755 12.199 2.47755 12.2966 2.57518L13.424 3.70256C13.5217 3.80026 13.5217 3.9587 13.4238 4.0563L12.4175 5.06053L10.9376 3.58065L11.9431 2.57518ZM9.87695 4.6413L3.57518 10.943C3.52829 10.9899 3.50195 11.0535 3.50195 11.1198L3.50195 12.498H4.86103C4.92724 12.498 4.99075 12.4717 5.03762 12.4249L11.3557 6.12008L9.87695 4.6413Z" fill="#222222"/>
</svg>